<svg width="120" height="40" viewBox="0 0 120 40" fill="none" xmlns="http://www.w3.org/2000/svg">
  <path d="M10.5 8C14.6421 8 18 11.3579 18 15.5C18 19.6421 14.6421 23 10.5 23C6.35786 23 3 19.6421 3 15.5C3 11.3579 6.35786 8 10.5 8Z" fill="#FF4081"/>
  <path d="M24.9257 8.57143H28.7743L35.4571 23H31.1571L30.0257 20.1429H23.5743L22.4429 23H18.2429L24.9257 8.57143ZM24.9257 16.8571H28.7743L26.85 12L24.9257 16.8571Z" fill="black"/>
  <path d="M37.6743 8.57143H41.8743V19.2857H48.5571V23H37.6743V8.57143Z" fill="black"/>
  <path d="M50.7743 8.57143H54.9743V23H50.7743V8.57143Z" fill="black"/>
  <path d="M57.1914 8.57143H61.3914V19.2857H68.0743V23H57.1914V8.57143Z" fill="black"/>
  <path d="M69.3914 8.57143H73.5914V23H69.3914V8.57143Z" fill="black"/>
  <path   fill="black"/>
  <path d="M69.3914 8.57143H73.5914V23H69.3914V8.57143Z" fill="black"/>
  <path d="M75.8086 8.57143H80.0086V19.2857H86.6914V23H75.8086V8.57143Z" fill="black"/>
  <path d="M88.0086 8.57143H98.8914V12.2857H92.2086V14.1429H98.1771V17.8571H92.2086V19.2857H98.8914V23H88.0086V8.57143Z" fill="black"/>
  <path d="M100.209 8.57143H104.409L108.973 16.8571V8.57143H113.173V23H108.973L104.409 14.7143V23H100.209V8.57143Z" fill="black"/>
</svg>
